<svg width="50" height="50" viewBox="0 0 50 50" fill="none" xmlns="http://www.w3.org/2000/svg">
<path fill-rule="evenodd" clip-rule="evenodd" d="M25 0.0300293C11.1932 0.0300293 0 11.0392 0 24.6191C0 38.199 11.1932 49.2082 25 49.2082C38.8068 49.2082 50 38.199 50 24.6191C50 11.0392 38.8068 0.0300293 25 0.0300293ZM17.5159 29.5526C17.0873 29.9598 16.5132 30.1851 15.9173 30.18C15.3214 30.1749 14.7513 29.9398 14.33 29.5253C13.9086 29.1109 13.6696 28.5502 13.6644 27.9641C13.6592 27.378 13.8883 26.8134 14.3023 26.3918L23.3932 17.4503C23.8194 17.0312 24.3974 16.7958 25 16.7958C25.6026 16.7958 26.1806 17.0312 26.6068 17.4503L35.6977 26.3918C36.1117 26.8134 36.3408 27.378 36.3356 27.9641C36.3304 28.5502 36.0914 29.1109 35.67 29.5253C35.2487 29.9398 34.6786 30.1749 34.0827 30.18C33.4868 30.1851 32.9127 29.9598 32.4841 29.5526L25 22.1915L17.5159 29.5526Z" fill="#141B2D"/>
</svg>
